<svg xmlns="http://www.w3.org/2000/svg" width="31" height="31" fill="none"><path fill="#fff" stroke="#000" d="m5.902 23.003-.159.299.22.259C8.252 26.267 11.676 28 15.5 28c3.823 0 7.248-1.733 9.538-4.44l.219-.258-.16-.299C23.843 20.638 21.379 19 18.5 19a2.03 2.03 0 0 0-.59.09l-.009.003a7.746 7.746 0 0 1-2.401.407c-.83 0-1.627-.157-2.402-.407l-.009-.003A2.03 2.03 0 0 0 12.5 19c-2.878 0-5.342 1.638-6.598 4.003ZM.5 15.5c0-8.286 6.714-15 15-15s15 6.714 15 15-6.714 15-15 15-15-6.714-15-15Zm21-4a6 6 0 1 0-12 0 6 6 0 0 0 12 0Z"/></svg>