<svg xmlns="http://www.w3.org/2000/svg" width="33" height="29" fill="none"><path fill="#fff" stroke="#000" d="M29.77 16.955a.872.872 0 0 1-.854.67H11.507l.125.601.375 1.813.082.398h15.785c.569 0 .976.519.854 1.05l-.316 1.374-.09.39.36.173a2.67 2.67 0 0 1 1.526 2.404c0 1.47-1.207 2.672-2.708 2.672-1.501 0-2.708-1.202-2.708-2.672 0-.746.31-1.42.811-1.906l.887-.86H12.01l.888.86c.502.486.811 1.16.811 1.906 0 1.47-1.207 2.672-2.708 2.672-1.501 0-2.708-1.202-2.708-2.672 0-.988.544-1.853 1.358-2.316l.317-.18-.074-.356L5.868 3.524l-.082-.399H1.375a.867.867 0 0 1-.875-.86V1.36C.5.89.886.5 1.375.5h5.874c.42 0 .775.292.858.688l.525 2.538.082.399h22.91c.569 0 .976.518.854 1.049l-2.708 11.78Z"/></svg>